<svg width="15" height="14" viewBox="0 0 15 14" fill="none" xmlns="http://www.w3.org/2000/svg">
<path d="M6.64762 0.266681C6.83522 -0.0888921 7.34446 -0.0888912 7.53207 0.266682L9.42031 3.84556C9.49265 3.98268 9.62452 4.07849 9.77728 4.10492L13.7645 4.79481C14.1606 4.86335 14.318 5.34767 14.0378 5.63596L11.2176 8.53772C11.1095 8.6489 11.0592 8.80391 11.0812 8.95737L11.6572 12.9626C11.7145 13.3606 11.3025 13.6599 10.9417 13.4825L7.31047 11.697C7.17134 11.6286 7.00835 11.6286 6.86922 11.697L3.23799 13.4825C2.87722 13.6599 2.46523 13.3606 2.52246 12.9626L3.09845 8.95737C3.12052 8.80391 3.07015 8.6489 2.9621 8.53772L0.141883 5.63596C-0.138315 5.34767 0.0190498 4.86335 0.415192 4.79481L4.4024 4.10492C4.55517 4.07849 4.68704 3.98268 4.75938 3.84556L6.64762 0.266681Z" fill="#FFC531"/>
</svg>
